<svg width="10" height="10" viewBox="0 0 10 10" fill="none" xmlns="http://www.w3.org/2000/svg">
<path d="M10 0C8.14062 0.245536 6.27679 0.491071 4.41964 0.736607C2.36607 1.01562 0.774554 2.67188 0.647321 4.75446C0.573661 5.9933 1.04911 7.19866 1.9375 8.0625L0 10C1.85938 9.75446 3.71652 9.50893 5.57589 9.26339C7.625 8.98438 9.22098 7.32589 9.34152 5.25C9.41964 4.01116 8.93973 2.8058 8.05357 1.94196L10 0ZM8.22098 5.18527C8.12723 6.95982 6.5692 8.29241 4.81027 8.1875C3.03571 8.08259 1.66964 6.60268 1.76786 4.81696C1.8683 3.04911 3.42634 1.70759 5.18304 1.81473C6.95312 1.91964 8.3192 3.39955 8.22098 5.18527Z" fill="#D9D9D9"/>
</svg>
